<?xml version="1.0" encoding="UTF-8" standalone="no"?>
<!-- Creator: fig2dev Version 3.2 Patchlevel 5e -->

<!-- CreationDate: Sun Apr 10 12:45:01 2016 -->

<!-- Magnification: 1.050 -->

<svg
   width="3.333178in"
   height="1.1147411in"
   viewBox="2744 2980 4000.523 1337.6893"
   version="1.1"
   id="svg20"
   sodipodi:docname="openfasttrace_logo.svg"
   inkscape:version="1.1.2 (0a00cf5339, 2022-02-04)"
   inkscape:export-filename="/home/sebastian/git/openfasttrace/src/main/resources/openfasttrace_logo.png"
   inkscape:export-xdpi="96"
   inkscape:export-ydpi="96"
   xmlns:inkscape="http://www.inkscape.org/namespaces/inkscape"
   xmlns:sodipodi="http://sodipodi.sourceforge.net/DTD/sodipodi-0.dtd"
   xmlns="http://www.w3.org/2000/svg"
   xmlns:svg="http://www.w3.org/2000/svg"
   xmlns:rdf="http://www.w3.org/1999/02/22-rdf-syntax-ns#"
   xmlns:cc="http://creativecommons.org/ns#"
   xmlns:dc="http://purl.org/dc/elements/1.1/">
  <metadata
     id="metadata26">
    <rdf:RDF>
      <cc:Work
         rdf:about="">
        <dc:format>image/svg+xml</dc:format>
        <dc:type
           rdf:resource="http://purl.org/dc/dcmitype/StillImage" />
      </cc:Work>
    </rdf:RDF>
  </metadata>
  <defs
     id="defs24" />
  <sodipodi:namedview
     pagecolor="#ffffff"
     bordercolor="#666666"
     borderopacity="1"
     objecttolerance="10"
     gridtolerance="10"
     guidetolerance="10"
     inkscape:pageopacity="0"
     inkscape:pageshadow="2"
     inkscape:window-width="3366"
     inkscape:window-height="1376"
     id="namedview22"
     showgrid="false"
     inkscape:zoom="0.84663124"
     inkscape:cx="-744.7162"
     inkscape:cy="191.93717"
     inkscape:window-x="0"
     inkscape:window-y="0"
     inkscape:window-maximized="1"
     inkscape:current-layer="svg20"
     inkscape:pagecheckerboard="0"
     inkscape:document-units="in" />
  <polygon
     id="polygon4"
     style="fill:#58c8fd;fill-opacity:1;stroke:#0a5ddd;stroke-width:111;stroke-linecap:butt;stroke-linejoin:miter;stroke-opacity:1"
     points="6141,3543 6614,4488 5669,6377 4015,6377 3307,5433 4251,3543 "
     transform="matrix(0.38900343,0,0,0.45430443,1482.8395,1395.2622)" />
  <polygon
     id="polygon6"
     style="fill:#ffffff;stroke:#0a5ddd;stroke-width:111;stroke-linecap:butt;stroke-linejoin:miter;stroke-opacity:1"
     points="10866,6377 11811,6377 12519,4960 11811,3543 10866,3543 11574,4960 "
     transform="matrix(0.38900343,0,0,0.45430443,1482.8395,1395.2622)" />
  <polygon
     id="polygon8"
     style="fill:#58c8fd;fill-opacity:1;stroke:#0a5ddd;stroke-width:111;stroke-linecap:butt;stroke-linejoin:miter;stroke-opacity:1"
     points="7086,3543 5669,6377 6614,6377 7086,5433 8031,5433 8503,4488 9448,4488 8976,3543 "
     transform="matrix(0.38900343,0,0,0.45430443,1482.8395,1395.2622)" />
  <polyline
     id="polyline10"
     style="fill:none;stroke:#0a5ddd;stroke-width:111;stroke-linecap:butt;stroke-linejoin:miter;stroke-opacity:1"
     points="7559,4488 8503,4488 "
     transform="matrix(0.38900343,0,0,0.45430443,1482.8395,1395.2622)" />
  <polygon
     id="polygon12"
     style="fill:#ffffff;fill-opacity:1;stroke:#0a5ddd;stroke-width:111;stroke-linecap:butt;stroke-linejoin:miter;stroke-opacity:1"
     points="4724,4488 4251,5433 5196,5433 5669,4488 "
     transform="matrix(0.38900343,0,0,0.45430443,1482.8395,1395.2622)" />
  <polygon
     id="polygon14"
     style="fill:#58c8fd;fill-opacity:1;stroke:#0a5ddd;stroke-width:111;stroke-linecap:butt;stroke-linejoin:miter;stroke-opacity:1"
     points="8976,3543 10866,3543 11338,4488 10393,4488 9448,6377 8503,6377 9448,4488 "
     transform="matrix(0.38900343,0,0,0.45430443,1482.8395,1395.2622)" />
  <polygon
     id="polygon16"
     style="fill:#ffffff;stroke:#0a5ddd;stroke-width:111;stroke-linecap:butt;stroke-linejoin:miter;stroke-opacity:1"
     points="11811,6377 12755,6377 13464,4960 12755,3543 11811,3543 12519,4960 "
     transform="matrix(0.38900343,0,0,0.45430443,1482.8395,1395.2622)" />
</svg>
