<svg width="40" height="40" viewBox="2744 2980 11282 3960" fill="none" xmlns="http://www.w3.org/2000/svg">
    <path
        d="M4250.9919 3543.0069L3307.0002 5432.9993L4015.0051 6377.001H5668.9938L6613.9928 4487.9934L6140.9897 3543.0069H4250.9919ZM4723.9949 4487.9934H5668.9938L5195.9908 5432.9993H4250.9919L4723.9949 4487.9934Z"
        fill="#58C8FD"
        fill-rule="evenodd"
        clip-rule="evenodd"
        stroke="#0A5DDD"
        stroke-width="111"
        stroke-linecap="butt"
        stroke-linejoin="miter"
        transform="matrix(1.090922 0 0 1.2645031 -737.28966 -1311.9354)"/>
    <polygon
        points="11811 3543 10866 3543 11574 4960 10866 6377 11811 6377 12519 4960"
        fill="#FFFFFF"
        stroke="#0A5DDD"
        stroke-width="111"
        stroke-linecap="butt"
        stroke-linejoin="miter"
        transform="matrix(1.090922 0 0 1.2645031 -737.28966 -1311.9354)"/>
    <polygon
        points="8503 4488 9448 4488 8976 3543 7086 3543 5669 6377 6614 6377 7086 5433 8031 5433"
        fill="#58C8FD"
        stroke="#0A5DDD"
        stroke-width="111"
        stroke-linecap="butt"
        stroke-linejoin="miter"
        transform="matrix(1.090922 0 0 1.2645031 -737.28966 -1311.9354)"/>
    <polyline
        points="7559 4488 8503 4488"
        stroke="#0A5DDD"
        stroke-width="111"
        stroke-linecap="butt"
        stroke-linejoin="miter"
        transform="matrix(1.090922 0 0 1.2645031 -737.28966 -1311.9354)"/>
    <polygon
        points="9448 6377 8503 6377 9448 4488 8976 3543 10866 3543 11338 4488 10393 4488"
        fill="#58C8FD"
        stroke="#0A5DDD"
        stroke-width="111"
        stroke-linecap="butt"
        stroke-linejoin="miter"
        transform="matrix(1.090922 0 0 1.2645031 -737.28966 -1311.9354)"/>
    <polygon
        points="12755 3543 11811 3543 12519 4960 11811 6377 12755 6377 13464 4960"
        fill="#FFFFFF"
        stroke="#0A5DDD"
        stroke-width="111"
        stroke-linecap="butt"
        stroke-linejoin="miter"
        transform="matrix(1.090922 0 0 1.2645031 -737.28966 -1311.9354)"/>
</svg>
